<?xml version="1.0" encoding="utf-8"?>
<!-- Generator: Adobe Illustrator 23.0.1, SVG Export Plug-In . SVG Version: 6.00 Build 0)  -->
<svg version="1.1" id="Livello_1" xmlns="http://www.w3.org/2000/svg" xmlns:xlink="http://www.w3.org/1999/xlink" x="0px" y="0px"
	 viewBox="0 0 721.9 250" enable-background="new 0 0 721.9 250" xml:space="preserve">
<rect y="5.9" fill="#FFC92F" width="332.8" height="244"/>
<path fill="#FFFFFF" d="M83.7,126l-1.8,7.6c-0.6,2.1-0.7,3.2-0.7,3.9c0,1.8,0.6,3.2,1.8,5.4l21.4,38.5c1.8,3,3.3,4.3,7.6,4.3h19.6
	c2.5,0,5.6-1.7,2.7-6.1l-26.2-43.5c8.8-5.6,18.7-13.5,18.7-30.9c0-22.5-12.6-35.1-40.3-35.1H46.3c-3.6,0-4.7,1.3-4.7,4.9v105.9
	c0,3.6,1.1,4.9,4.7,4.9h16.5c3.6,0,4.7-1.3,4.7-4.9V91.6h17.1c10.8,0,16,3.9,16,14c0,9.2-4.2,12-8.3,13.8
	C87.1,121.6,85.3,119.2,83.7,126 M152.1,167.2L150,181c-0.4,2.7,0.9,3.8,3.2,4.2c5.2,0.7,18.3,1.6,31.1,1.6c28.6,0,49.5-9.4,49.5-36
	c0-15.6-6.8-27.3-30.6-33.5l-13.3-3.4c-9-2.3-13.1-5.2-13.1-11.8c0-9.3,8.6-11.2,16.9-11.2c11.2,0,22.5,0.9,27,1.3
	c4.7,0.4,5.9-0.2,6.7-4.1l2.1-13.5c0.3-2.7-0.9-3.8-3.3-4.1c-5.2-0.7-16.7-1.6-31.3-1.6c-29.7,0-44.1,13-44.1,33.5
	c0,18.5,10,29.4,27.5,33.9l13.3,3.4c11,2.9,15.6,6.1,15.6,13c0,10.1-6.8,11.9-23.4,11.9c-7.6,0-20.7-1.1-25.2-1.4
	C154,162.7,152.8,163.2,152.1,167.2 M262.9,180.8c0,3.6,1.1,4.9,4.7,4.9h16.5c3.6,0,4.7-1.3,4.7-4.9V75c0-3.6-1.1-4.9-4.7-4.9h-16.5
	c-3.6,0-4.7,1.3-4.7,4.9V180.8z"/>
<path fill="#FFC92F" d="M522.8,139.7c-1.1,0-2.3-0.2-3.3-0.5l-138.7-43c-4.1-1.2-6.6-4-6.4-8.6V53.4c-0.2-4.7,2.3-7.6,6.5-8.8
	L519.6,1.5c0.9-0.2,2.1-0.5,3.2-0.5c1.7,0,3.3,0.5,4.3,1.6c1.1,1.1,1.7,2.6,1.7,4.2V31c-0.1,3.8-2.9,7.1-6.5,8.1l-21.7,6v52.5
	l21.7,6.1c3.6,1.1,6.4,4.3,6.5,7.9v22.4c0,1.6-0.6,3.2-1.7,4.2C526.1,139.1,524.5,139.7,522.8,139.7 M470.3,53.8l-61.5,17.3
	L470.3,89C470.3,89,470.3,53.8,470.3,53.8z M493,153.7c0-1.6,0.6-3.2,1.7-4.2c1.1-1.1,2.7-1.6,4.3-1.6c1.1,0,2.3,0.2,3.3,0.5l20,6.2
	c3.6,1.1,6.4,4.3,6.5,8v80.5c0,3.9-3.1,6.9-6.9,6.9H381.2c-3.9,0-6.9-3.1-6.9-6.9v-24.2c0-3.9,3.1-6.9,6.9-6.9h111.7v-58.3H493z
	 M568,59.7c-0.7,0.3-1.5,0.5-2.3,0.5c-3.3,0-6-2.7-6-6.1v-0.5l2.7-32.8c0.2-3.6,2.5-6.7,5.7-7.8c0.8-0.3,1.6-0.6,2.5-0.9
	c4.4-1.6,9.8-3.4,16.5-5.2c6.7-1.9,14.3-3.5,22.6-4.9c8.3-1.4,17-2,26-2c27.4,0,48.5,6.6,63.1,19.9c14.7,13.3,22,31.9,22,55.9
	c0,13.9-3,26.1-8.9,36.6c-5.9,10.5-13.5,19.3-22.6,26.2c-9.1,7-17.4,13.2-24.9,18.6c-5.1,3.7-10.3,7.4-15.8,11.2
	c-5.5,3.7-10.4,7.5-14.9,11.3c-4.5,3.9-8.4,7.7-11.8,11.7c-3.4,4-5.7,8-6.9,11.9h98.4c4.7,0,8.6,3.9,8.6,8.7c0,0.5,0,1-0.1,1.4
	l-4.6,29.3c-0.7,4.2-4.2,7.4-8.4,7.4H564.2c-4.7,0-8.5-3.9-8.5-8.7v-18.7c0-20.3,5.4-36.7,16.2-49c10.8-12.4,28.7-27.5,53.7-45.3
	c5.9-4.2,11.2-8,16.2-11.3c5-3.3,9.3-6.8,12.9-10.4c3.6-3.6,6.5-7.6,8.5-12.1c2-4.4,3.1-9.9,3.1-16.3c0-9.7-3-17.1-8.9-22.4
	c-6-5.3-15.5-8-28.6-8c-9.2,0-20.2,1.3-32.9,3.9c-12.7,2.6-21.7,5.8-27.7,8.2L568,59.7L568,59.7z"/>
</svg>
