<svg width="2729" height="1001" viewBox="0 0 2729 1001" fill="none" xmlns="http://www.w3.org/2000/svg">
<path d="M2100.9 557.2C2096.5 557.2 2091.9 556.2 2087.7 555.2L1530.2 382.3C1513.4 377.5 1503.6 366 1504.4 347.8V210.3C1503.7 191.6 1513.4 179.8 1530.3 175L2088.1 1.9C2091.8 1.1 2096.4 0 2100.9 0C2107.7 0 2114.1 2.1 2118.4 6.5C2122.8 10.8 2125.1 16.9 2125.1 23.4V120.6C2125 135.9 2113.6 149 2099 153.2L2012 177.2V388.1L2099 412.7C2113.6 417 2124.9 429.9 2125.1 444.5V533.8C2125.1 540.3 2122.8 546.6 2118.4 550.7C2114 555.1 2107.8 557.2 2101.1 557.2H2100.9ZM1890.2 211.8L1642.9 281.3L1890.2 353.3V211.8Z" fill="#FF9120"/>
<path d="M1337.4 19.7H0V1000H1337.4V19.7Z" fill="#FF9120"/>
<path d="M336 502.1L328.8 532.4C326.7 541.1 326 545.4 326 548.3C326 555.6 328 561.5 333.1 569.9L419.1 724.6C426.3 736.8 432.1 741.9 449.5 741.9H528.2C538.3 741.9 550.6 735.5 538.9 717.3L433.5 542.6C469 520.2 508.7 488.4 508.7 418.5C508.7 328 458.1 277.4 346.9 277.4H185.7C171.3 277.4 167 282.5 167 297.2V722.5C167 737 171.4 742 185.7 742H252.2C266.6 742 271 737 271 722.5V363.5H339.6C383 363.5 403.8 379.3 403.8 419.8C403.8 456.5 387.3 468.1 370.6 475.3C349.9 484.1 342.5 474.7 336 502.1ZM611.1 667.5L602.4 723.2C601.1 734 606.1 738.4 615.6 739.9C636.4 742.6 689.1 746.3 740.5 746.3C855.4 746.3 939.2 708.8 939.2 601.8C939.2 538.9 911.8 491.9 816.4 467.4L763 453.7C726.8 444.4 710.3 432.8 710.3 406C710.3 368.4 744.9 361.2 778.2 361.2C823.1 361.2 868.5 364.7 886.6 366.2C905.3 367.6 910.4 365.5 913.4 349.6L922.1 295.3C923.4 284.5 918.4 280.2 908.9 278.8C888 275.9 841.7 272.3 783.3 272.3C664.2 272.3 606.4 324.3 606.4 406.6C606.4 481 646.8 525 716.9 543.1L770 557C814 568.6 832.9 581.6 832.9 609C832.9 649.5 805.5 656.7 739 656.7C708.8 656.7 656 652.4 637.9 650.9C619.1 649.5 614 651.6 611.1 667.5ZM1056.6 722.5C1056.6 736.9 1060.9 742 1075.3 742H1141.8C1156.3 742 1160.5 736.9 1160.5 722.5V297.1C1160.5 282.6 1156.2 277.4 1141.8 277.4H1075.3C1060.8 277.4 1056.6 282.5 1056.6 297.1V722.5Z" fill="white"/>
<path d="M2694.3 19.6H2607.7C2594 19.6 2575.8 23.1 2564 26.1L2268 118.2C2248.6 123.2 2232.9 142.9 2232.9 162.2V268.4C2232.9 289.5 2250 308.3 2280.6 300.5L2508 230V964.8C2508 984.2 2523.7 1000 2543 1000H2693.1C2712.5 1000 2728.8 984.2 2728.8 964.8V54.6C2728.8 35.4 2713.8 19.6 2694.3 19.6ZM1981.2 613.4C1981.1 606.9 1983.4 600.8 1987.9 596.5C1992.5 592.1 1998.6 590 2005.3 590C2009.9 590 2014.4 590.9 2018.5 592L2099.1 617C2113.6 621.2 2124.9 634.1 2125.1 648.9V972.2C2125.1 987.7 2112.8 999.9 2097.5 1000.1H1532.2C1516.8 999.9 1504.4 987.7 1504.4 972.2V875.5C1504.4 859.9 1516.8 847.7 1532.2 847.7H1981.1L1981.2 613.4Z" fill="#FF9120"/>
</svg>
